<svg xmlns="http://www.w3.org/2000/svg" viewBox="0 0 512 512" role="img" aria-labelledby="title">
  <title id="title">Kriyan logo</title>
  <defs>
    <linearGradient id="field" x1="82" y1="54" x2="430" y2="458" gradientUnits="userSpaceOnUse">
      <stop stop-color="#0b352b"/>
      <stop offset="0.54" stop-color="#0f6846"/>
      <stop offset="1" stop-color="#22a66c"/>
    </linearGradient>
    <linearGradient id="mark" x1="152" y1="132" x2="360" y2="382" gradientUnits="userSpaceOnUse">
      <stop stop-color="#f6fff8"/>
      <stop offset="1" stop-color="#c9f8da"/>
    </linearGradient>
    <filter id="lift" x="-20%" y="-20%" width="140%" height="140%" color-interpolation-filters="sRGB">
      <feDropShadow dx="0" dy="12" stdDeviation="16" flood-color="#042018" flood-opacity="0.28"/>
    </filter>
  </defs>
  <rect width="512" height="512" rx="112" fill="url(#field)"/>
  <path
    d="M166 352V160c0-15 12-27 27-27s27 12 27 27v86l107-99c12-11 30-10 40 2s9 30-3 41l-83 76 88 68c13 10 15 28 5 40s-28 15-41 5l-113-88v61c0 15-12 27-27 27s-27-12-27-27Z"
    fill="url(#mark)"
    filter="url(#lift)"
  />
  <path
    d="M220 247c28-18 65-48 110-92M221 290c33 21 72 50 116 86"
    fill="none"
    stroke="#ffffff"
    stroke-linecap="round"
    stroke-width="10"
    opacity="0.18"
  />
</svg>
